<svg width="697" height="616" viewBox="0 0 697 616" fill="none" xmlns="http://www.w3.org/2000/svg">
<path d="M419.577 340.882C425.746 338.669 432.145 336.818 438.96 335.791C450.494 334.052 462.738 334.052 474.272 335.791C483.895 337.249 492.971 339.858 501.252 343.56C508.722 346.896 515.328 351.017 520.898 355.806C527.511 361.494 532.409 367.894 535.459 374.818C536.306 376.738 536.779 378.736 537.297 380.723C531.661 381.349 525.99 381.942 520.208 382.431C519.065 377.961 517.328 373.605 514.364 369.554C508.8 361.934 500.401 355.564 490.085 351.136C471.384 343.118 447.15 342.64 427.654 349.506C425.243 346.509 422.562 343.633 419.577 340.882Z" fill="#FFDDDD"/>
<path d="M474.582 381.149C476.02 382.253 477.076 383.495 477.985 384.774C470.926 384.963 463.807 385.072 456.617 385.072C451.352 385.072 446.188 384.964 441.019 384.86C441.059 383.179 440.98 381.503 440.836 379.821C450.339 374.292 466.162 374.684 474.582 381.149Z" fill="#FFDDDD"/>
<path d="M533.469 352.843C541.151 347.998 550.288 344.455 560.387 342.665C587.532 337.826 613.87 347.037 622.493 363.303C616.837 365.273 610.704 367.134 604.126 368.877C598.706 357.012 581.457 350.102 563.312 353.291C554.649 354.832 547.284 358.48 541.936 363.387C539.567 359.701 536.756 356.175 533.469 352.843Z" fill="#FFDDDD"/>
<path d="M433.863 358.193C450.036 353.061 469.808 353.712 485.011 360.23C493.428 363.838 500.215 368.952 504.646 375.016C506.57 377.645 507.75 380.433 508.636 383.274C502.649 383.682 496.597 384.009 490.483 384.273C488.942 380.275 486.131 376.562 482.193 373.538C471.018 364.958 452.444 363.643 438.763 369.329C437.57 365.557 435.953 361.835 433.863 358.193Z" fill="#FFDDDD"/>
<path d="M11.8375 19.1767L18.8394 0L557.111 160.228L551.774 174.844L11.8375 19.1767Z" fill="#FF9595"/>
<path d="M593.078 371.606C579.707 374.67 564.861 377.276 548.885 379.364C548.425 377.456 547.846 375.571 547.157 373.707C550.641 368.658 557.41 364.671 565.607 363.215C577.515 361.102 589.145 364.88 593.078 371.606Z" fill="#FFDDDD"/>
<path d="M403.587 161.809L0.000152588 51.6032L8.32098 28.8159L403.587 142.774V161.809Z" fill="#FF9595"/>
<path d="M264.63 351.274C279.978 327.811 318.087 315.857 357.864 322.927C372.414 325.507 386.145 330.528 397.572 337.442C400.391 339.151 403.069 340.97 405.578 342.878C411.733 347.558 416.846 352.762 420.781 358.341C425.252 364.692 428.059 371.319 429.13 378.035C429.475 380.192 429.58 382.357 429.554 384.519C423.333 384.307 417.209 384.019 411.173 383.663C412.238 360.458 388.972 338.748 355.141 332.742C322.15 326.913 290.923 338.46 280.15 359.254C274.093 356.693 268.894 354.027 264.63 351.274Z" fill="#FFDDDD"/>
<path d="M309.025 368.889C302.439 367.141 296.414 365.239 290.727 363.254C299.369 347.022 325.713 337.844 352.852 342.665C380.336 347.541 399.865 365.01 399.425 382.923C392.821 382.426 386.356 381.841 380.014 381.179C380.204 376.583 378.74 371.907 375.621 367.697C370.282 360.496 360.919 355.243 349.921 353.291C331.789 350.099 314.447 356.999 309.025 368.889Z" fill="#FFDDDD"/>
<path d="M347.631 363.215C355.49 364.608 362.333 368.344 365.942 373.212C367.147 374.843 368.408 377.175 368.538 379.913C350.998 377.753 334.754 374.943 320.157 371.595C324.091 364.876 335.759 361.087 347.631 363.215Z" fill="#FFDDDD"/>
<path d="M558.099 332.742C545.664 334.949 534.438 339.488 525.101 345.737C521.68 343.126 517.996 340.731 514.04 338.544C514.591 338.187 515.086 337.791 515.656 337.447C527.088 330.528 540.82 325.507 555.37 322.927C595.118 315.867 633.266 327.812 648.608 351.271C644.316 354.044 639.071 356.73 632.953 359.309C622.183 338.501 591.059 326.922 558.099 332.742Z" fill="#FFDDDD"/>
<path d="M604.295 540.853V560.383C604.295 590.529 536.665 616 456.616 616C376.562 616 308.932 590.529 308.932 560.383V540.852C350.461 560.153 401.48 571.577 456.616 571.577C511.75 571.577 562.767 560.153 604.295 540.853Z" fill="#D49C9C"/>
<path d="M456.617 423.308C570.974 423.308 665.221 397.596 697 361.239V410.35C697 493.671 589.165 561.456 456.617 561.456C324.068 561.456 216.228 493.671 216.228 410.35V361.239C248.008 397.596 342.259 423.308 456.617 423.308Z" fill="#D49C9C"/>
<path d="M255.815 344.059C252.747 340.678 251.083 337.312 251.083 334.008C251.083 314.999 304.555 291.628 403.587 284.793V328.819C390.983 321.293 375.996 315.816 360.152 313.004C316.722 305.298 274.441 318.26 255.815 344.059Z" fill="#FFDDDD"/>
<path d="M403.587 256.87V274.627C321.058 280.276 239.537 300.551 239.537 334.008C239.537 341.88 244.154 349.387 253.27 356.32C260.029 361.47 269.308 366.308 280.837 370.702C310.629 382.053 354.492 390.138 404.36 393.479C414.253 394.141 424.428 394.621 434.817 394.902C441.982 395.095 449.254 395.194 456.617 395.194C487.464 395.194 517.24 393.479 545.116 390.094C580.05 385.859 610.231 379.152 632.397 370.702C643.936 366.303 653.21 361.465 659.969 356.32C669.079 349.387 673.695 341.88 673.695 334.008C673.695 300.551 592.176 280.276 509.647 274.627V256.87C616.858 265.039 697 297.784 697 334.008C697 376.928 586.916 413.188 456.617 413.188C326.312 413.188 216.228 376.928 216.228 334.008C216.228 297.784 296.375 265.039 403.587 256.87Z" fill="#D49C9C"/>
<path d="M415.132 146.103L435.049 151.845V326.243C428.108 327.404 421.503 329.242 415.132 331.488V146.103Z" fill="#FFDDDD"/>
<path d="M553.081 313.004C537.23 315.816 522.241 321.298 509.646 328.821V284.793C608.678 291.628 662.15 314.999 662.15 334.008C662.15 337.313 660.487 340.679 657.417 344.06C638.791 318.265 596.49 305.321 553.081 313.004Z" fill="#FFDDDD"/>
<path d="M542.664 199.788L509.647 190.773V173.351L548.256 184.483L542.664 199.788Z" fill="#FF9595"/>
<path d="M498.102 170.023V331.486C491.738 329.243 485.136 327.406 478.185 326.243V164.281L498.102 170.023Z" fill="#FFDDDD"/>
<path d="M446.594 155.173L466.64 160.952V324.745C459.991 324.246 453.243 324.246 446.594 324.745V155.173Z" fill="#FFDDDD"/>
</svg>
