<svg width="50" height="40" viewBox="0 0 50 40" fill="none" xmlns="http://www.w3.org/2000/svg">
<path d="M15.724 40C34.592 40 44.912 24.6095 44.912 11.2629C44.912 10.8258 44.912 10.3906 44.882 9.95736C46.8896 8.52754 48.6228 6.75737 50 4.72942C48.1278 5.54619 46.1416 6.08174 44.108 6.31845C46.249 5.05661 47.8524 3.07039 48.618 0.73207C46.6044 1.90844 44.4012 2.73762 42.104 3.18365C40.1644 1.15291 37.4554 0 34.6242 0C28.9912 0 24.3562 4.56356 24.3562 10.1094C24.3562 10.8787 24.4454 11.6457 24.622 12.3951C16.378 11.9883 8.68643 8.14911 3.47998 1.84267C0.772558 6.43143 2.17344 12.3782 6.65596 15.3251C5.02363 15.2775 3.42637 14.8439 2 14.0609V14.1889C2.00137 18.9784 5.46162 23.1413 10.23 24.0896C8.71982 24.4951 7.13496 24.5543 5.59805 24.2629C6.93857 28.367 10.8042 31.1959 15.182 31.2769C11.5502 34.087 7.06123 35.6134 2.44199 35.6089C1.62578 35.6074 0.810352 35.5587 0 35.4632C4.69082 38.4269 10.1504 39.9994 15.724 39.9921" fill="#D49C9C"/>
</svg>
